<svg id="Capa_1" data-name="Capa 1" xmlns="http://www.w3.org/2000/svg" viewBox="0 0 328 333"><defs><style>.cls-1{fill:#fff;}</style></defs><title>Mesa de trabajo 1</title><path class="cls-1" d="M4.49,325.41l22.32-79.28A158.67,158.67,0,0,1,4.9,165.49C4.9,77.72,76.31,6.32,164.07,6.32s159.17,71.4,159.17,159.17-71.4,159.17-159.17,159.17a159,159,0,0,1-77.81-20.29Zm85.94-50,4.87,3a131.9,131.9,0,0,0,68.76,19.27c72.88,0,132.17-59.29,132.17-132.17S236.95,33.32,164.07,33.32,31.9,92.61,31.9,165.49A131.69,131.69,0,0,0,52.77,236.8l3.28,5.11L43.2,287.57Z"/><path class="cls-1" d="M119.36,91.41,109,90.84a12.49,12.49,0,0,0-8.88,3c-5,4.35-13,12.75-15.47,23.71-3.67,16.33,2,36.33,16.67,56.33s42,52,90.33,65.67C207.26,244,219.51,241,229,235a33.34,33.34,0,0,0,14.51-21.17l1.65-7.7a5.35,5.35,0,0,0-3-6L207.22,184a5.35,5.35,0,0,0-6.48,1.59L187,203.39a3.92,3.92,0,0,1-4.41,1.31c-9.38-3.3-40.82-16.46-58.07-49.69a4,4,0,0,1,.5-4.42l13.1-15.15a5.35,5.35,0,0,0,.87-5.6l-15-35.2A5.35,5.35,0,0,0,119.36,91.41Z"/></svg>